<?xml version="1.0" encoding="UTF-8" standalone="no"?>
<svg width="502px" height="84px" viewBox="0 0 502 84" version="1.1" xmlns="http://www.w3.org/2000/svg" xmlns:xlink="http://www.w3.org/1999/xlink" xmlns:sketch="http://www.bohemiancoding.com/sketch/ns">
    <!-- Generator: Sketch 3.3.3 (12081) - http://www.bohemiancoding.com/sketch -->
    <title>funktum-logo-black</title>
    <desc>Created with Sketch.</desc>
    <defs>
        <path id="path-1" d="M0,0 L502,0 L502,84 L0,84 L0,0 Z"></path>
    </defs>
    <g id="Page-1" stroke="none" stroke-width="1" fill="none" fill-rule="evenodd" sketch:type="MSPage">
        <g id="funktum-logo-black" sketch:type="MSLayerGroup">
            <path d="M501.098,81.9911 L482.429,81.9911 L482.429,50.4801 C482.429,44.8131 481.336,39.4561 474.468,39.4561 C468.162,39.4561 464.63,44.8621 464.63,50.7101 L464.63,81.9911 L446.313,81.9911 L446.313,50.7101 C446.313,44.5941 444.215,39.1101 437.179,39.1101 C430.801,39.1101 427.576,45.1081 427.576,50.8241 L427.576,81.9911 L409.025,81.9911 L409.025,23.5671 L424.498,23.5671 L426.26,28.6761 C429.815,24.1441 435.449,22.3021 441.048,22.3021 C448.467,22.3021 454.531,25.3951 458.059,32.0651 C463.006,25.1701 468.661,22.1871 477.164,22.1871 C494.668,22.1871 501.098,34.1651 501.098,50.1341 L501.098,81.9911 Z" id="Fill-1" fill="#000000" sketch:type="MSShapeGroup"></path>
            <path d="M394.9095,81.9911 L378.8935,81.9911 L377.5755,75.8101 C372.7995,81.1441 366.7255,83.1411 359.7035,83.1411 C341.1465,83.1411 334.4975,71.6911 334.4975,54.5031 L334.4975,23.5671 L353.1645,23.5671 L353.1645,54.3891 C353.1645,61.9941 356.1715,66.7921 364.2985,66.7921 C371.5995,66.7921 376.5925,60.7481 376.5925,53.6991 L376.5925,23.5671 L394.9095,23.5671 L394.9095,81.9911 Z" id="Fill-3" fill="#000000" sketch:type="MSShapeGroup"></path>
            <path d="M326.7382,80.4041 C321.7292,82.3191 317.1542,83.2981 311.7752,83.2981 C296.7412,83.2981 290.6642,74.0451 290.6642,59.9061 L290.6642,39.3401 L280.3452,39.3401 L280.3452,36.1251 L305.9992,7.9521 L309.2152,7.9521 L309.2152,23.5671 L323.8722,23.5671 L323.8722,39.3401 L309.0982,39.3401 L309.0982,59.9061 C309.0982,63.7251 310.6132,66.6761 314.8322,66.6761 C317.3932,66.6761 320.0952,66.0571 322.4002,64.9391 L326.7382,80.4041 Z" id="Fill-5" fill="#000000" sketch:type="MSShapeGroup"></path>
            <path d="M277.3386,81.9911 L255.8156,81.9911 L237.0016,58.5831 L237.0016,81.9911 L218.4506,81.9911 L218.4506,0.0001 L237.0016,0.0001 L237.0016,44.2521 L252.8746,23.5671 L274.0556,23.5671 L274.0556,25.8231 L253.0776,51.1621 L277.3386,79.6141 L277.3386,81.9911 Z" id="Fill-7" fill="#000000" sketch:type="MSShapeGroup"></path>
            <path d="M204.8219,81.9911 L186.1539,81.9911 L186.1539,51.1701 C186.1539,43.5641 183.1489,38.7661 175.0209,38.7661 C167.7189,38.7661 162.7279,44.8091 162.7279,51.8591 L162.7279,81.9911 L144.4099,81.9911 L144.4099,23.5671 L160.4239,23.5671 L161.7419,29.5661 C166.5289,24.3581 172.6609,22.1871 179.6379,22.1871 C198.1819,22.1871 204.8219,33.9651 204.8219,51.0541 L204.8219,81.9911 Z" id="Fill-9" fill="#000000" sketch:type="MSShapeGroup"></path>
            <path d="M130.9021,81.9911 L114.8871,81.9911 L113.5691,75.8101 C108.7931,81.1451 102.7181,83.1411 95.6961,83.1411 C77.1391,83.1411 70.4891,71.6911 70.4891,54.5031 L70.4891,23.5671 L89.1581,23.5671 L89.1581,54.3891 C89.1581,61.9931 92.1651,66.7921 100.2921,66.7921 C107.5931,66.7921 112.5861,60.7481 112.5861,53.6991 L112.5861,23.5671 L130.9021,23.5671 L130.9021,81.9911 Z" id="Fill-11" fill="#000000" sketch:type="MSShapeGroup"></path>
            <g id="Group-15">
                <mask id="mask-2" sketch:name="Clip 14" fill="white">
                    <use xlink:href="#path-1"></use>
                </mask>
                <g id="Clip-14"></g>
                <path d="M61.4677,18.0732 L19.9577,18.0712 L19.9577,35.5232 L57.2797,35.5222 L57.2797,53.1362 L19.9577,53.1362 L19.9577,81.9912 L-0.0003,81.9912 L-0.0003,0.0002 L61.4677,0.0002 L61.4677,18.0732 Z" id="Fill-13" fill="#000000" sketch:type="MSShapeGroup" mask="url(#mask-2)"></path>
            </g>
        </g>
    </g>
</svg>